<?xml version="1.0" encoding="UTF-8" standalone="no"?>
<!-- Created with Inkscape (http://www.inkscape.org/) -->

<svg
   xmlns:dc="http://purl.org/dc/elements/1.1/"
   xmlns:cc="http://creativecommons.org/ns#"
   xmlns:rdf="http://www.w3.org/1999/02/22-rdf-syntax-ns#"
   xmlns:svg="http://www.w3.org/2000/svg"
   xmlns="http://www.w3.org/2000/svg"
   xmlns:sodipodi="http://sodipodi.sourceforge.net/DTD/sodipodi-0.dtd"
   xmlns:inkscape="http://www.inkscape.org/namespaces/inkscape"
   inkscape:version="0.48.3.1 r9886"
   version="1.1"
   id="svg2"
   height="512"
   width="512"
   sodipodi:docname="icon.svg"
   inkscape:export-filename="/home/ihincks/academics/research/code/lib/hardware-drivers/python/src/x6/tools/ui/icon.png"
   inkscape:export-xdpi="90"
   inkscape:export-ydpi="90">
  <defs
     id="defs4" />
  <sodipodi:namedview
     id="base"
     pagecolor="#ffffff"
     bordercolor="#666666"
     borderopacity="1.0"
     inkscape:pageopacity="0.0"
     inkscape:pageshadow="2"
     inkscape:zoom="0.0875"
     inkscape:cx="415.08677"
     inkscape:cy="183.15869"
     inkscape:document-units="px"
     inkscape:current-layer="layer1"
     showgrid="false"
     inkscape:window-width="1631"
     inkscape:window-height="1026"
     inkscape:window-x="49"
     inkscape:window-y="24"
     inkscape:window-maximized="1" />
  <metadata
     id="metadata7">
    <rdf:RDF>
      <cc:Work
         rdf:about="">
        <dc:format>image/svg+xml</dc:format>
        <dc:type
           rdf:resource="http://purl.org/dc/dcmitype/StillImage" />
        <dc:title></dc:title>
      </cc:Work>
    </rdf:RDF>
  </metadata>
  <g
     inkscape:label="Layer 1"
     inkscape:groupmode="layer"
     id="layer1"
     transform="translate(0,-540.36218)">
    <rect
       style="fill:#005880;fill-opacity:1;stroke:none"
       id="rect2991"
       width="343.95694"
       height="343.95694"
       x="-554.0722"
       y="572.15399"
       transform="matrix(0.70710678,-0.70710678,0.70710678,0.70710678,0,0)" />
    <g
       id="g3113"
       transform="matrix(0.95615057,0,0,0.95615057,22.206502,8.4860519)">
      <path
         style="font-size:328.07666016px;font-style:normal;font-variant:normal;font-weight:normal;font-stretch:normal;text-align:start;line-height:125%;letter-spacing:0px;word-spacing:0px;writing-mode:lr-tb;text-anchor:start;fill:#ffffff;fill-opacity:1;stroke:none;font-family:Tibetan Machine Uni;-inkscape-font-specification:Tibetan Machine Uni"
         d="m 263.96875,683.84375 c -33.94058,1.27538 -68.00999,0.20575 -102,0.5625 0,14.73958 0,29.47917 0,44.21875 7.56173,5.2333 17.26358,2.19741 25.5625,3.34375 -7.09376,10.28233 -14.58202,20.18481 -21.03125,30.875 -2.74556,5.0629 -5.20607,-5.04232 -7.76151,-6.6001 -5.69929,-8.11448 -11.31473,-16.18318 -16.86349,-24.43115 6.59513,0.12442 13.21407,-0.0133 19.75,-0.96875 0,-15.47917 0,-30.95833 0,-46.4375 -47.23958,0 -94.479167,0 -141.71875,0 8.90702,8.56173 4.840513,21.17723 6.125,32 0.699248,8.68857 8.326556,16.46629 17.4375,15.46875 6.853127,-0.24198 16.39698,-1.67759 19.389273,6.47765 19.861637,28.5335 39.612367,57.1472 59.298227,85.8036 -20.8334,27.48192 -37.743418,58.08805 -62.25,82.375 -10.066094,6.39057 -23.002698,5.91385 -33.78125,1.59375 0,16.83333 0,33.66667 0,50.5 42.385417,0 84.77083,0 127.15625,0 0,-15.01042 0,-30.02083 0,-45.03125 -8.99181,-5.68251 -20.36016,0.47662 -29.46875,-3.46875 2.51222,-9.34442 11.29061,-15.24253 15.13285,-23.93365 4.04269,-6.12426 8.21439,-12.17387 12.3359,-18.25385 10.25866,14.46346 21.07431,28.52145 30.875,43.3125 -8.11575,-0.0829 -16.2555,-0.29762 -24.34375,0.53125 0,15.61458 0,31.22917 0,46.84375 47.40625,0 94.8125,0 142.21875,0 0,-15.23958 0,-30.47917 0,-45.71875 -11.77192,-5.07895 -25.82199,2.67999 -36.8125,-4.71875 -22.99658,-33.00826 -45.93863,-66.23802 -68.9375,-99.34375 19.48592,-25.13521 34.84859,-53.92302 59.15625,-74.9375 9.2992,-3.95159 23.18416,0.89729 29.4375,-9.1875 5.16476,-8.49625 4.51351,-19.54551 2.65625,-28.90625 -3.30271,-8.52073 -12.83976,-12.73964 -21.5625,-11.96875 z"
         id="path3117"
         inkscape:connector-curvature="0" />
      <path
         style="font-size:328.07666016px;font-style:normal;font-variant:normal;font-weight:normal;font-stretch:normal;text-align:start;line-height:125%;letter-spacing:0px;word-spacing:0px;writing-mode:lr-tb;text-anchor:start;fill:#ffffff;fill-opacity:1;stroke:none;font-family:Tibetan Machine Uni;-inkscape-font-specification:Tibetan Machine Uni"
         d="m 389.4375,690.53125 c -44.34484,0.0306 -84.15844,33.19773 -97.15625,74.65625 -19.79029,49.56997 -20.23242,109.04509 6.65625,156.09375 19.73405,31.83229 60.2279,49.79119 97.09375,40.5625 33.45382,-7.16892 61.05849,-34.1698 69.4375,-67.25 10.15286,-35.11353 -0.8998,-77.81382 -32.4375,-98.375 C 409.29763,780.25096 377.0346,777.78217 351.25,790.125 c 3.2451,-19.43278 10.47294,-41.63536 29.53125,-50.84375 3.16072,-1.29505 6.79451,-2.58909 9.96875,-2.4375 -7.51617,19.58668 3.67859,45.56342 25.34375,49.375 22.56512,5.41873 47.98152,-13.58729 46.96875,-37.25 1.22661,-26.71232 -20.74787,-49.79248 -45.96875,-55.15625 -9.0044,-2.50009 -18.30081,-3.56799 -27.65625,-3.28125 z M 376.875,834.625 c 14.32007,-0.943 24.32949,14.41392 23.16903,27.61931 1.77638,18.50611 0.12971,40.25463 -15.23153,52.84944 C 374.80618,920.55178 362.21078,913.85261 358,904 c -10.96252,-18.24917 -11.38239,-43.49119 0.90625,-61.1875 4.54136,-5.07894 11.18415,-8.10546 17.96875,-8.1875 z"
         id="path3017"
         inkscape:connector-curvature="0" />
    </g>
    <g
       style="font-size:313.69070435px;font-style:normal;font-variant:normal;font-weight:normal;font-stretch:normal;text-align:start;line-height:125%;letter-spacing:0px;word-spacing:0px;writing-mode:lr-tb;text-anchor:start;fill:#000000;fill-opacity:1;stroke:none;font-family:Tibetan Machine Uni;-inkscape-font-specification:Tibetan Machine Uni"
       id="text2985"
       transform="translate(0.17805487,0.10172715)">
      <path
         d="m 274.65625,673.875 c -20.89794,0.84256 -41.94261,-0.096 -62.90625,0.25 -8.73958,0 -17.47917,0 -26.21875,0 0,7.53125 0,15.0625 0,22.59375 8.47136,1.11271 19.57923,-2.39329 25.65625,5.3125 2.83021,9.13743 -6.6998,15.74437 -10.34375,23 -7.95833,11.61458 -15.91667,23.22917 -23.875,34.84375 -13.77744,-20.8148 -29.52303,-41.21867 -42.03125,-62.3125 9.08091,-1.48309 18.46569,-0.41664 27.65625,-0.75 0,-7.5625 0,-15.125 0,-22.6875 -35.75,0 -71.5,0 -107.25,0 1.132891,6.67515 -1.62831,13.71471 0.65625,20.15625 3.213696,5.23071 10.795252,1.3737 15.78125,2.75 7.382202,-0.17708 13.860054,4.40975 17.056281,10.97013 C 109.37882,737.32772 129.61921,767.08406 150,796.625 c -19.97911,27.18823 -38.37089,55.63687 -59.519607,81.83211 -8.943809,9.1109 -22.01203,14.06849 -34.855393,12.38664 0,7.625 0,15.25 0,22.875 33,0 66,0 99,0 0,-7.57292 0,-15.14583 0,-22.71875 -9.32167,-0.594 -23.07425,2.72666 -28.09375,-7.40625 -3.26527,-11.10214 7.55484,-19.42929 12.28125,-28.25 8.34375,-12.3125 16.6875,-24.625 25.03125,-36.9375 15.75116,22.83667 33.00115,44.8099 47.6875,68.25 0.60331,1.62137 0.92121,5.03209 -1.78125,3.71875 -9.37448,1.01263 -18.81312,0.44682 -28.21875,0.65625 0,7.5625 0,15.125 0,22.6875 37.80208,0 75.60417,0 113.40625,0 0,-7.5625 0,-15.125 0,-22.6875 -11.04543,-0.65353 -25.65866,2.79054 -33.09375,-7.6875 -23.71165,-33.79727 -47.14888,-67.97537 -70.75,-101.9375 18.96791,-24.83042 35.88353,-51.54696 56.5625,-74.9375 8.0067,-7.95909 19.7194,-10.68298 30.65625,-9.625 6.50579,-2.38456 2.2921,-10.66226 3.40625,-15.625 1.61766,-4.76227 -2.47169,-8.09874 -7.0625,-7.34375 z"
         id="path3931"
         inkscape:connector-curvature="0" />
      <path
         d="m 391.90625,679.96875 c -31.61029,0.397 -61.53722,19.74218 -75.09075,47.97867 -21.39535,40.16612 -26.00533,89.13861 -12.6905,132.58383 8.37977,25.90065 28.05518,49.30975 55.34375,55.75 30.3527,8.02523 65.62711,-3.81937 82.375,-30.8125 17.9039,-26.30063 20.75831,-64.01363 1.52029,-90.38173 C 424.88307,768.0627 384.50577,759.573 356.34375,776.25 c -5.55292,3.25747 -10.71596,7.32837 -15.09375,12.0625 1.7966,-26.03951 5.42518,-54.90825 24.3125,-74.53125 10.5911,-10.27219 27.94212,-16.11437 41.8125,-9.15625 3.28498,3.76902 -2.23234,7.40923 -2.96875,11.09375 -5.00613,10.9914 -1.62786,26.2003 10.03125,31.3125 12.93857,6.70509 30.85561,-0.34692 34.78125,-14.5625 6.24449,-18.2017 -5.89215,-38.23442 -22.8125,-45.4375 -10.71156,-5.24579 -22.60871,-7.44935 -34.5,-7.0625 z m -10.875,115.40625 c 15.78745,-0.74772 28.96706,12.98042 30.90625,28.03125 3.81729,18.71368 2.05631,39.28335 -6.5625,56.53125 -5.60527,10.87717 -17.54366,18.66425 -30,16.375 -17.44332,-2.81099 -27.56899,-20.81242 -30.96875,-36.75 -3.70496,-17.9129 -2.11414,-38.84569 10.03125,-53.375 6.74962,-7.393 16.70703,-11.02422 26.59375,-10.8125 z"
         id="path3933"
         inkscape:connector-curvature="0" />
    </g>
  </g>
</svg>
